<?xml version="1.0" encoding="iso-8859-1"?>
<!-- Generator: Adobe Illustrator 19.0.0, SVG Export Plug-In . SVG Version: 6.00 Build 0)  -->
<svg version="1.1" id="Capa_1" xmlns="http://www.w3.org/2000/svg" xmlns:xlink="http://www.w3.org/1999/xlink" x="0px" y="0px"
	 viewBox="0 0 511.594 511.594" style="enable-background:new 0 0 511.594 511.594;" xml:space="preserve">
<rect x="7.994" y="3.997" style="fill:#94C1FF;" width="495.61" height="503.6"/>
<g>
	<path style="fill:#FFFFFF;" d="M239.81,35.971v439.651c-8.876,0-15.987,7.12-15.987,15.987H39.968
		c0-8.867-7.112-15.987-15.987-15.987V35.971c8.875,0,15.987-7.194,15.987-15.987h183.854
		C223.822,28.777,230.934,35.971,239.81,35.971z"/>
	<path style="fill:#FFFFFF;" d="M487.613,35.971v439.651c-8.876,0-15.987,7.12-15.987,15.987H287.772
		c0-8.867-7.111-15.987-15.987-15.987V35.971c8.876,0,15.987-7.194,15.987-15.987h183.854
		C471.626,28.777,478.737,35.971,487.613,35.971z"/>
</g>
<rect x="119.907" y="115.907" style="fill:#5C9EFF;" width="23.981" height="39.968"/>
<path style="fill:#94C1FF;" d="M167.867,307.756v31.975c0,4.395-3.599,7.993-7.994,7.993h-55.956c-4.395,0-7.994-3.599-7.994-7.993
	v-31.975H167.867z"/>
<path style="fill:#D7E9FF;" d="M103.918,339.731v-31.975h-7.994v31.975c0,4.395,3.599,7.993,7.994,7.993h7.994
	C107.516,347.724,103.918,344.125,103.918,339.731z"/>
<g>
	<path style="fill:#5C9EFF;" d="M159.873,339.731v-31.975h7.994v31.975c0,4.395-3.599,7.993-7.994,7.993h-7.994
		C156.275,347.724,159.873,344.125,159.873,339.731z"/>
	<rect x="95.927" y="235.817" style="fill:#5C9EFF;" width="71.943" height="71.943"/>
</g>
<path style="fill:#94C1FF;" d="M167.867,219.825v15.987H95.924v-15.987c0-23.981,23.981-23.981,23.981-39.968v-23.981h23.981v23.981
	C143.886,195.844,167.867,195.844,167.867,219.825z"/>
<path style="fill:#D7E9FF;" d="M95.924,219.825v15.987h7.994v-15.987c0-23.981,15.987-23.981,15.987-39.968
	C119.905,195.844,95.924,195.844,95.924,219.825z"/>
<path style="fill:#5C9EFF;" d="M168.538,219.825v15.987h-7.994v-15.987c0-23.981-15.987-23.981-15.987-39.968
	C144.557,195.844,168.538,195.844,168.538,219.825z"/>
<rect x="95.927" y="235.817" style="fill:#94C1FF;" width="7.994" height="71.943"/>
<rect x="159.877" y="235.817" style="fill:#2287FF;" width="7.994" height="71.943"/>
<rect x="7.994" y="3.997" style="fill:#D7E9FF;" width="15.987" height="503.6"/>
<rect x="487.617" y="3.997" style="fill:#5C9EFF;" width="15.987" height="503.6"/>
<path style="fill:#D7E9FF;" d="M415.67,91.927c0,8.794-16.065,15.987-35.972,15.987c-19.905,0-35.971-7.193-35.971-15.987
	c0-8.872,16.065-15.987,35.971-15.987C399.605,75.94,415.67,83.055,415.67,91.927z"/>
<g>
	<path style="fill:#116FFF;" d="M379.698,111.911c-22.786,0-39.968-8.591-39.968-19.984s17.182-19.984,39.968-19.984
		c22.787,0,39.969,8.591,39.969,19.984S402.485,111.911,379.698,111.911z M379.698,79.937c-19.812,0-31.975,6.982-31.975,11.99
		c0,4.891,12.459,11.99,31.975,11.99c19.517,0,31.975-7.1,31.975-11.99C411.673,86.919,399.511,79.937,379.698,79.937z"/>
	<path style="fill:#116FFF;" d="M391.69,95.924h-23.981c-2.209,0-3.996-1.788-3.996-3.997s1.787-3.997,3.996-3.997h23.981
		c2.209,0,3.997,1.788,3.997,3.997S393.899,95.924,391.69,95.924z"/>
	<path style="fill:#116FFF;" d="M341.362,161.547c-2.561,0-5.254-1.082-7.33-2.053c-1.499-0.706-2.506-1.026-3.131-1.175
		c-0.733,0.944-1.873,1.554-3.161,1.554c-2.21,0-3.997-1.788-3.997-3.997c0-1.448,0.695-3.431,2.631-4.66
		c3.356-2.143,7.916-0.434,11.062,1.042c1.499,0.707,2.506,1.026,3.13,1.175c0.734-0.944,1.874-1.554,3.162-1.554
		c2.209,0,3.996,1.788,3.996,3.997c0,1.448-0.694,3.431-2.631,4.66C343.954,161.263,342.673,161.547,341.362,161.547z"/>
	<path style="fill:#116FFF;" d="M418.035,161.547c-1.312,0-2.591-0.285-3.731-1.011c-1.936-1.229-2.631-3.212-2.631-4.66
		c0-2.209,1.788-3.997,3.997-3.997c1.288,0,2.428,0.609,3.162,1.554c0.624-0.148,1.631-0.468,3.13-1.175
		c3.146-1.472,7.697-3.185,11.062-1.042c1.937,1.229,2.631,3.212,2.631,4.66c0,2.209-1.788,3.997-3.997,3.997
		c-1.288,0-2.428-0.609-3.161-1.554c-0.625,0.148-1.632,0.469-3.13,1.175C423.289,160.466,420.596,161.547,418.035,161.547z"/>
	<path style="fill:#116FFF;" d="M399.683,159.873h-39.968c-2.21,0-3.997-1.788-3.997-3.997s1.787-3.997,3.997-3.997h39.968
		c2.209,0,3.997,1.788,3.997,3.997S401.892,159.873,399.683,159.873z"/>
	<path style="fill:#116FFF;" d="M341.362,361.385c-2.561,0-5.254-1.077-7.33-2.045c-1.499-0.711-2.506-1.031-3.131-1.179
		c-0.733,0.944-1.873,1.554-3.161,1.554c-2.21,0-3.997-1.788-3.997-3.997c0-1.452,0.695-3.435,2.631-4.661
		c3.356-2.154,7.916-0.429,11.062,1.039c1.499,0.71,2.506,1.03,3.13,1.179c0.734-0.944,1.874-1.554,3.162-1.554
		c2.209,0,3.996,1.787,3.996,3.997c0,1.452-0.694,3.435-2.631,4.66C343.954,361.104,342.673,361.385,341.362,361.385z"/>
	<path style="fill:#116FFF;" d="M418.035,361.385c-1.312,0-2.591-0.281-3.731-1.007c-1.936-1.226-2.631-3.208-2.631-4.66
		c0-2.21,1.788-3.997,3.997-3.997c1.288,0,2.428,0.609,3.162,1.554c0.624-0.148,1.631-0.469,3.13-1.179
		c3.146-1.468,7.697-3.186,11.062-1.039c1.937,1.227,2.631,3.209,2.631,4.661c0,2.209-1.788,3.997-3.997,3.997
		c-1.288,0-2.428-0.609-3.161-1.554c-0.625,0.147-1.632,0.468-3.13,1.179C423.289,360.308,420.596,361.385,418.035,361.385z"/>
	<path style="fill:#116FFF;" d="M399.683,359.715h-39.968c-2.21,0-3.997-1.788-3.997-3.997c0-2.21,1.787-3.997,3.997-3.997h39.968
		c2.209,0,3.997,1.787,3.997,3.997C403.68,357.927,401.892,359.715,399.683,359.715z"/>
	<path style="fill:#116FFF;" d="M319.746,191.848h-15.987c-2.209,0-3.996-1.788-3.996-3.997s1.787-3.997,3.996-3.997h15.987
		c2.21,0,3.997,1.788,3.997,3.997S321.956,191.848,319.746,191.848z"/>
	<path style="fill:#116FFF;" d="M455.639,191.848h-15.987c-2.209,0-3.997-1.788-3.997-3.997s1.788-3.997,3.997-3.997h15.987
		c2.209,0,3.997,1.788,3.997,3.997S457.848,191.848,455.639,191.848z"/>
	<path style="fill:#116FFF;" d="M351.721,215.828h-47.962c-2.209,0-3.996-1.787-3.996-3.997c0-2.209,1.787-3.997,3.996-3.997h47.962
		c2.21,0,3.997,1.788,3.997,3.997C355.718,214.041,353.931,215.828,351.721,215.828z"/>
	<path style="fill:#116FFF;" d="M455.639,215.828h-15.987c-2.209,0-3.997-1.787-3.997-3.997c0-2.209,1.788-3.997,3.997-3.997h15.987
		c2.209,0,3.997,1.788,3.997,3.997C459.636,214.041,457.848,215.828,455.639,215.828z"/>
	<path style="fill:#116FFF;" d="M375.702,239.81h-71.943c-2.209,0-3.996-1.788-3.996-3.997s1.787-3.997,3.996-3.997h71.943
		c2.209,0,3.996,1.788,3.996,3.997S377.911,239.81,375.702,239.81z"/>
	<path style="fill:#116FFF;" d="M455.639,239.81h-15.987c-2.209,0-3.997-1.788-3.997-3.997s1.788-3.997,3.997-3.997h15.987
		c2.209,0,3.997,1.788,3.997,3.997S457.848,239.81,455.639,239.81z"/>
	<path style="fill:#116FFF;" d="M335.734,263.791h-31.975c-2.209,0-3.996-1.788-3.996-3.997c0-2.21,1.787-3.997,3.996-3.997h31.975
		c2.209,0,3.997,1.787,3.997,3.997C339.731,262.003,337.943,263.791,335.734,263.791z"/>
	<path style="fill:#116FFF;" d="M455.639,263.791h-15.987c-2.209,0-3.997-1.788-3.997-3.997c0-2.21,1.788-3.997,3.997-3.997h15.987
		c2.209,0,3.997,1.787,3.997,3.997C459.636,262.003,457.848,263.791,455.639,263.791z"/>
	<path style="fill:#116FFF;" d="M359.715,287.772h-55.956c-2.209,0-3.996-1.788-3.996-3.997s1.787-3.997,3.996-3.997h55.956
		c2.209,0,3.997,1.788,3.997,3.997S361.924,287.772,359.715,287.772z"/>
	<path style="fill:#116FFF;" d="M455.639,287.772h-15.987c-2.209,0-3.997-1.788-3.997-3.997s1.788-3.997,3.997-3.997h15.987
		c2.209,0,3.997,1.788,3.997,3.997S457.848,287.772,455.639,287.772z"/>
	<path style="fill:#116FFF;" d="M359.715,391.69h-55.956c-2.209,0-3.996-1.788-3.996-3.997c0-2.21,1.787-3.997,3.996-3.997h55.956
		c2.209,0,3.997,1.787,3.997,3.997C363.712,389.901,361.924,391.69,359.715,391.69z"/>
	<path style="fill:#116FFF;" d="M455.639,391.69h-15.987c-2.209,0-3.997-1.788-3.997-3.997c0-2.21,1.788-3.997,3.997-3.997h15.987
		c2.209,0,3.997,1.787,3.997,3.997C459.636,389.901,457.848,391.69,455.639,391.69z"/>
	<path style="fill:#116FFF;" d="M335.734,415.67h-31.975c-2.209,0-3.996-1.787-3.996-3.997c0-2.209,1.787-3.997,3.996-3.997h31.975
		c2.209,0,3.997,1.788,3.997,3.997C339.731,413.883,337.943,415.67,335.734,415.67z"/>
	<path style="fill:#116FFF;" d="M455.639,415.67h-15.987c-2.209,0-3.997-1.787-3.997-3.997c0-2.209,1.788-3.997,3.997-3.997h15.987
		c2.209,0,3.997,1.788,3.997,3.997C459.636,413.883,457.848,415.67,455.639,415.67z"/>
	<path style="fill:#116FFF;" d="M367.708,439.651h-63.949c-2.209,0-3.996-1.787-3.996-3.996s1.787-3.997,3.996-3.997h63.949
		c2.209,0,3.997,1.788,3.997,3.997S369.917,439.651,367.708,439.651z"/>
	<path style="fill:#116FFF;" d="M455.639,439.651h-15.987c-2.209,0-3.997-1.787-3.997-3.996s1.788-3.997,3.997-3.997h15.987
		c2.209,0,3.997,1.788,3.997,3.997S457.848,439.651,455.639,439.651z"/>
	<path style="fill:#116FFF;" d="M375.702,311.752h-71.943c-2.209,0-3.996-1.787-3.996-3.996s1.787-3.997,3.996-3.997h71.943
		c2.209,0,3.996,1.788,3.996,3.997S377.911,311.752,375.702,311.752z"/>
	<path style="fill:#116FFF;" d="M455.639,311.752h-15.987c-2.209,0-3.997-1.787-3.997-3.996s1.788-3.997,3.997-3.997h15.987
		c2.209,0,3.997,1.788,3.997,3.997S457.848,311.752,455.639,311.752z"/>
	<path style="fill:#116FFF;" d="M7.994,511.594c-2.209,0-3.997-1.787-3.997-3.997V3.997C3.997,1.788,5.784,0,7.994,0
		s3.996,1.787,3.996,3.997v503.6C11.99,509.807,10.203,511.594,7.994,511.594z"/>
	<path style="fill:#116FFF;" d="M503.601,7.993H7.994c-2.21,0-3.997-1.787-3.997-3.996S5.784,0,7.994,0h495.607
		c2.209,0,3.996,1.787,3.996,3.997S505.81,7.993,503.601,7.993z"/>
	<path style="fill:#116FFF;" d="M503.601,511.594c-2.209,0-3.997-1.787-3.997-3.997V3.997c0-2.209,1.788-3.997,3.997-3.997
		s3.996,1.787,3.996,3.997v503.6C507.597,509.807,505.81,511.594,503.601,511.594z"/>
	<path style="fill:#116FFF;" d="M503.601,511.594H7.994c-2.209,0-3.997-1.787-3.997-3.997c0-2.209,1.787-3.997,3.997-3.997h495.607
		c2.209,0,3.996,1.788,3.996,3.997C507.597,509.807,505.81,511.594,503.601,511.594z"/>
	<path style="fill:#116FFF;" d="M255.797,511.594c-2.209,0-3.997-1.787-3.997-3.997V3.997c0-2.209,1.788-3.997,3.997-3.997
		c2.209,0,3.997,1.787,3.997,3.997v503.6C259.794,509.807,258.006,511.594,255.797,511.594z"/>
	<path style="fill:#116FFF;" d="M223.822,23.981H39.968c-2.209,0-3.997-1.787-3.997-3.997s1.787-3.997,3.997-3.997h183.854
		c2.209,0,3.997,1.787,3.997,3.997S226.031,23.981,223.822,23.981z"/>
	<path style="fill:#116FFF;" d="M239.81,39.968c-11.022,0-19.984-8.965-19.984-19.984c0-2.209,1.788-3.997,3.997-3.997
		s3.997,1.787,3.997,3.997c0,6.612,5.378,11.991,11.99,11.991c2.209,0,3.997,1.787,3.997,3.997S242.019,39.968,239.81,39.968z"/>
	<path style="fill:#116FFF;" d="M23.981,39.968c-2.209,0-3.997-1.787-3.997-3.997s1.787-3.997,3.997-3.997
		c6.612,0,11.991-5.379,11.991-11.991c0-2.209,1.787-3.997,3.997-3.997s3.997,1.787,3.997,3.997
		C43.965,31.003,35.004,39.968,23.981,39.968z"/>
	<path style="fill:#116FFF;" d="M223.822,495.607H39.968c-2.209,0-3.997-1.788-3.997-3.997s1.787-3.996,3.997-3.996h183.854
		c2.209,0,3.997,1.787,3.997,3.996S226.031,495.607,223.822,495.607z"/>
	<path style="fill:#116FFF;" d="M39.968,495.607c-2.209,0-3.997-1.788-3.997-3.997c0-6.611-5.379-11.99-11.991-11.99
		c-2.209,0-3.997-1.787-3.997-3.997c0-2.209,1.787-3.997,3.997-3.997c11.022,0,19.984,8.962,19.984,19.984
		C43.965,493.818,42.178,495.607,39.968,495.607z"/>
	<path style="fill:#116FFF;" d="M223.822,495.607c-2.209,0-3.997-1.788-3.997-3.997c0-11.022,8.962-19.984,19.984-19.984
		c2.209,0,3.997,1.788,3.997,3.997c0,2.21-1.788,3.997-3.997,3.997c-6.612,0-11.99,5.379-11.99,11.99
		C227.819,493.818,226.031,495.607,223.822,495.607z"/>
	<path style="fill:#116FFF;" d="M23.981,479.619c-2.209,0-3.997-1.787-3.997-3.997V35.971c0-2.209,1.787-3.997,3.997-3.997
		s3.997,1.787,3.997,3.997v439.651C27.978,477.832,26.191,479.619,23.981,479.619z"/>
	<path style="fill:#116FFF;" d="M239.81,479.619c-2.209,0-3.997-1.787-3.997-3.997V35.971c0-2.209,1.788-3.997,3.997-3.997
		s3.997,1.787,3.997,3.997v439.651C243.807,477.832,242.019,479.619,239.81,479.619z"/>
	<path style="fill:#116FFF;" d="M471.626,23.981H287.772c-2.209,0-3.997-1.787-3.997-3.997s1.788-3.997,3.997-3.997h183.854
		c2.209,0,3.996,1.787,3.996,3.997S473.835,23.981,471.626,23.981z"/>
	<path style="fill:#116FFF;" d="M487.613,39.968c-11.022,0-19.984-8.965-19.984-19.984c0-2.209,1.788-3.997,3.997-3.997
		s3.996,1.787,3.996,3.997c0,6.612,5.379,11.991,11.991,11.991c2.209,0,3.997,1.787,3.997,3.997S489.822,39.968,487.613,39.968z"/>
	<path style="fill:#116FFF;" d="M271.784,39.968c-2.209,0-3.996-1.787-3.996-3.997s1.787-3.997,3.996-3.997
		c6.612,0,11.99-5.379,11.99-11.991c0-2.209,1.788-3.997,3.997-3.997c2.21,0,3.997,1.787,3.997,3.997
		C291.769,31.003,282.807,39.968,271.784,39.968z"/>
	<path style="fill:#116FFF;" d="M471.626,495.607H287.772c-2.209,0-3.997-1.788-3.997-3.997s1.788-3.996,3.997-3.996h183.854
		c2.209,0,3.996,1.787,3.996,3.996S473.835,495.607,471.626,495.607z"/>
	<path style="fill:#116FFF;" d="M287.772,495.607c-2.209,0-3.997-1.788-3.997-3.997c0-6.611-5.378-11.99-11.99-11.99
		c-2.209,0-3.996-1.787-3.996-3.997c0-2.209,1.787-3.997,3.996-3.997c11.022,0,19.984,8.962,19.984,19.984
		C291.769,493.818,289.982,495.607,287.772,495.607z"/>
	<path style="fill:#116FFF;" d="M471.626,495.607c-2.209,0-3.997-1.788-3.997-3.997c0-11.022,8.962-19.984,19.984-19.984
		c2.209,0,3.997,1.788,3.997,3.997c0,2.21-1.788,3.997-3.997,3.997c-6.612,0-11.991,5.379-11.991,11.99
		C475.622,493.818,473.835,495.607,471.626,495.607z"/>
	<path style="fill:#116FFF;" d="M271.784,479.619c-2.209,0-3.996-1.787-3.996-3.997V35.971c0-2.209,1.787-3.997,3.996-3.997
		s3.997,1.787,3.997,3.997v439.651C275.781,477.832,273.993,479.619,271.784,479.619z"/>
	<path style="fill:#116FFF;" d="M487.613,479.619c-2.21,0-3.997-1.787-3.997-3.997V35.971c0-2.209,1.787-3.997,3.997-3.997
		c2.209,0,3.997,1.787,3.997,3.997v439.651C491.61,477.832,489.822,479.619,487.613,479.619z"/>
	<path style="fill:#116FFF;" d="M119.905,183.854c-2.209,0-3.997-1.787-3.997-3.997v-63.949c0-2.209,1.787-3.997,3.997-3.997
		s3.997,1.787,3.997,3.997v63.949C123.901,182.067,122.114,183.854,119.905,183.854z"/>
	<path style="fill:#116FFF;" d="M143.886,183.854c-2.209,0-3.997-1.787-3.997-3.997v-63.949c0-2.209,1.788-3.997,3.997-3.997
		s3.997,1.787,3.997,3.997v63.949C147.883,182.067,146.095,183.854,143.886,183.854z"/>
	<path style="fill:#116FFF;" d="M95.924,223.822c-2.209,0-3.997-1.788-3.997-3.997c0-15.097,8.47-22.01,15.27-27.568
		c5.565-4.54,8.712-7.357,8.712-12.4c0-2.209,1.787-3.997,3.997-3.997s3.997,1.788,3.997,3.997c0,9.083-6.19,14.137-11.646,18.595
		c-6.347,5.175-12.334,10.07-12.334,21.374C99.921,222.034,98.133,223.822,95.924,223.822z"/>
	<path style="fill:#116FFF;" d="M167.867,223.822c-2.209,0-3.997-1.788-3.997-3.997c0-11.304-5.987-16.198-12.334-21.374
		c-5.457-4.458-11.647-9.512-11.647-18.595c0-2.209,1.788-3.997,3.997-3.997s3.997,1.788,3.997,3.997
		c0,5.043,3.146,7.861,8.712,12.4c6.799,5.558,15.269,12.471,15.269,27.568C171.863,222.034,170.076,223.822,167.867,223.822z"/>
	<path style="fill:#116FFF;" d="M143.886,119.904h-23.981c-2.209,0-3.997-1.787-3.997-3.997s1.787-3.997,3.997-3.997h23.981
		c2.209,0,3.997,1.787,3.997,3.997S146.095,119.904,143.886,119.904z"/>
	<path style="fill:#116FFF;" d="M143.886,159.873h-23.981c-2.209,0-3.997-1.788-3.997-3.997s1.787-3.997,3.997-3.997h23.981
		c2.209,0,3.997,1.788,3.997,3.997S146.095,159.873,143.886,159.873z"/>
	<path style="fill:#116FFF;" d="M95.924,343.727c-2.209,0-3.997-1.787-3.997-3.996V219.825c0-2.209,1.788-3.997,3.997-3.997
		s3.997,1.788,3.997,3.997V339.73C99.921,341.94,98.133,343.727,95.924,343.727z"/>
	<path style="fill:#116FFF;" d="M167.867,343.727c-2.209,0-3.997-1.787-3.997-3.996V219.825c0-2.209,1.788-3.997,3.997-3.997
		s3.997,1.788,3.997,3.997V339.73C171.863,341.94,170.076,343.727,167.867,343.727z"/>
	<path style="fill:#116FFF;" d="M103.918,351.721c-6.612,0-11.991-5.379-11.991-11.99c0-2.209,1.788-3.997,3.997-3.997
		s3.997,1.788,3.997,3.997c0,2.201,1.795,3.996,3.997,3.996c2.209,0,3.997,1.788,3.997,3.997
		C107.914,349.934,106.127,351.721,103.918,351.721z"/>
	<path style="fill:#116FFF;" d="M159.873,351.721c-2.209,0-3.997-1.787-3.997-3.997c0-2.209,1.788-3.997,3.997-3.997
		c2.201,0,3.997-1.795,3.997-3.996c0-2.209,1.788-3.997,3.997-3.997s3.997,1.788,3.997,3.997
		C171.863,346.342,166.485,351.721,159.873,351.721z"/>
	<path style="fill:#116FFF;" d="M159.873,351.721h-55.956c-2.209,0-3.997-1.787-3.997-3.997c0-2.209,1.787-3.997,3.997-3.997h55.956
		c2.209,0,3.997,1.788,3.997,3.997C163.87,349.934,162.082,351.721,159.873,351.721z"/>
	<path style="fill:#116FFF;" d="M167.867,239.81H95.924c-2.209,0-3.997-1.788-3.997-3.997s1.788-3.997,3.997-3.997h71.943
		c2.209,0,3.997,1.788,3.997,3.997S170.076,239.81,167.867,239.81z"/>
	<path style="fill:#116FFF;" d="M167.867,311.752H95.924c-2.209,0-3.997-1.787-3.997-3.996s1.788-3.997,3.997-3.997h71.943
		c2.209,0,3.997,1.788,3.997,3.997S170.076,311.752,167.867,311.752z"/>
	<path style="fill:#116FFF;" d="M121.022,263.791c-0.43,0-0.859-0.066-1.288-0.215c-2.092-0.711-3.209-2.982-2.498-5.07
		c0.148-0.438,3.778-10.703,15.222-10.703s15.066,10.269,15.215,10.703c0.71,2.092-0.414,4.363-2.498,5.074
		c-2.084,0.71-4.356-0.406-5.074-2.498c-0.18-0.508-2.084-5.285-7.643-5.285c-5.784,0-7.634,5.234-7.65,5.285
		C124.237,262.744,122.684,263.791,121.022,263.791z"/>
	<path style="fill:#116FFF;" d="M151.88,279.777h-39.968c-2.209,0-3.997-1.787-3.997-3.996s1.788-3.997,3.997-3.997h39.968
		c2.209,0,3.997,1.788,3.997,3.997S154.089,279.777,151.88,279.777z"/>
	<path style="fill:#116FFF;" d="M135.892,295.766h-7.994c-2.209,0-3.997-1.788-3.997-3.997c0-2.21,1.788-3.997,3.997-3.997h7.994
		c2.209,0,3.997,1.787,3.997,3.997C139.889,293.978,138.102,295.766,135.892,295.766z"/>
	<path style="fill:#116FFF;" d="M183.854,399.683H79.937c-2.209,0-3.997-1.788-3.997-3.997s1.788-3.996,3.997-3.996h103.917
		c2.209,0,3.997,1.787,3.997,3.996S186.064,399.683,183.854,399.683z"/>
	<path style="fill:#116FFF;" d="M159.873,415.67h-55.956c-2.209,0-3.997-1.787-3.997-3.997c0-2.209,1.787-3.997,3.997-3.997h55.956
		c2.209,0,3.997,1.788,3.997,3.997C163.87,413.883,162.082,415.67,159.873,415.67z"/>
</g>
<g>
</g>
<g>
</g>
<g>
</g>
<g>
</g>
<g>
</g>
<g>
</g>
<g>
</g>
<g>
</g>
<g>
</g>
<g>
</g>
<g>
</g>
<g>
</g>
<g>
</g>
<g>
</g>
<g>
</g>
</svg>
